<?xml version="1.0" encoding="UTF-8" standalone="no"?>
<!-- Created with Inkscape (http://www.inkscape.org/) -->

<svg
   version="1.1"
   id="svg2"
   width="305.50668"
   height="381.88"
   viewBox="0 0 305.50668 381.88"
   sodipodi:docname="yalova-universitesi-seeklogo.eps"
   xmlns:inkscape="http://www.inkscape.org/namespaces/inkscape"
   xmlns:sodipodi="http://sodipodi.sourceforge.net/DTD/sodipodi-0.dtd"
   xmlns="http://www.w3.org/2000/svg"
   xmlns:svg="http://www.w3.org/2000/svg">
  <defs
     id="defs6" />
  <sodipodi:namedview
     id="namedview4"
     pagecolor="#ffffff"
     bordercolor="#000000"
     borderopacity="0.25"
     inkscape:showpageshadow="2"
     inkscape:pageopacity="0.0"
     inkscape:pagecheckerboard="0"
     inkscape:deskcolor="#d1d1d1" />
  <g
     id="g8"
     inkscape:groupmode="layer"
     inkscape:label="ink_ext_XXXXXX"
     transform="matrix(1.3333333,0,0,-1.3333333,0,381.88)">
    <g
       id="g10"
       transform="scale(0.1)">
      <path
         d="m 1145.64,2864.12 c 632.47,0 1145.2,-641.15 1145.2,-1432.06 C 2290.84,641.16 1778.11,0 1145.64,0 513.18,0 0.453125,641.16 0.453125,1432.06 0.453125,2222.97 513.18,2864.12 1145.64,2864.12"
         style="fill:#ffffff;fill-opacity:1;fill-rule:evenodd;stroke:none"
         id="path12" />
      <path
         d="m 1145.64,2859.54 c -304.695,0 -591.175,-148.42 -806.687,-417.91 C 123.324,2171.98 4.57031,1813.45 4.57031,1432.06 4.57031,1050.67 123.324,692.141 338.953,422.5 554.465,153.02 840.945,4.57813 1145.64,4.57813 c 304.68,0 591.18,148.44187 806.69,417.92187 215.62,269.641 334.39,628.17 334.39,1009.56 0,381.39 -118.77,739.92 -334.39,1009.57 -215.51,269.49 -502.01,417.91 -806.69,417.91 m 0,-2859.5282812 C 839.531,0.0117188 551.77,149.031 335.375,419.641 119.109,690.09 0,1049.63 0,1432.06 c 0,382.42 119.109,741.98 335.375,1012.43 216.395,270.6 504.156,419.63 810.265,419.63 306.1,0 593.88,-149.03 810.26,-419.63 216.29,-270.45 335.39,-630.01 335.39,-1012.43 0,-382.43 -119.1,-741.97 -335.39,-1012.419 C 1739.52,149.031 1451.74,0.0117188 1145.64,0.0117188"
         style="fill:#211f1e;fill-opacity:1;fill-rule:nonzero;stroke:none"
         id="path14" />
      <path
         d="m 184.41,1563.12 -85.6952,60.66 0.6954,11.95 97.2618,-68 74.324,-4.33 -1.402,-23.88 -72.465,4.22 -70.844,-41.16 c -16.555,-9.69 -29.0389,-18.28 -31.4412,-36.79 l -5.3086,0.31 1.3906,23.89 c 1.164,19.91 16.3752,29.68 31.5152,38.12 l 61.969,35.01"
         style="fill:#211f1e;fill-opacity:1;fill-rule:nonzero;stroke:none"
         id="path16" />
      <path
         d="m 221.391,1677.15 11.379,64.15 -81.497,-17.95 z m 83.445,120.23 c 0.32,-2.77 0.144,-6.79 -0.551,-10.71 -2.094,-11.79 -9.781,-32.29 -41.93,-38.47 l -18.183,-3.53 -13,-73.3 46.031,-29.77 -2.098,-11.78 -159.789,103.96 1.395,7.85 150.293,32.76 c 21.066,4.63 28.723,9.75 32.598,23.91 l 5.234,-0.92"
         style="fill:#211f1e;fill-opacity:1;fill-rule:nonzero;stroke:none"
         id="path18" />
      <path
         d="m 315.039,1862.01 29.102,89.79 10.121,-3.28 -36.481,-112.54 -136.59,44.26 c -15.171,4.92 -26.097,5.66 -31.015,-9.51 l -1.653,-5.06 -5.05,1.64 7.379,22.77 c 5.73,17.69 12.433,21.12 37.722,12.92 l 126.465,-40.99"
         style="fill:#211f1e;fill-opacity:1;fill-rule:nonzero;stroke:none"
         id="path20" />
      <path
         d="m 245.934,2118.39 c -15.368,-30.96 3.761,-64.2 49.007,-86.67 45.262,-22.46 83.297,-17.58 98.653,13.39 15.371,30.95 -3.75,64.19 -48.992,86.65 -45.254,22.46 -83.297,17.6 -98.668,-13.37 m -9.52,4.74 c 22.453,45.24 73.313,55.62 120.008,32.46 46.676,-23.18 69.168,-69.96 46.715,-115.22 -22.469,-45.24 -73.328,-55.62 -120.008,-32.46 -46.684,23.18 -69.184,69.96 -46.715,115.22"
         style="fill:#211f1e;fill-opacity:1;fill-rule:nonzero;stroke:none"
         id="path22" />
      <path
         d="m 474.758,2237.96 c -44.699,77.32 -20.192,34.41 -76.438,129.2 l 7.586,10.26 97.91,-167.24 -2.836,-3.84 -154.91,37.77 c -20.929,5.23 -30.062,4.04 -39.824,-6.93 l -4.281,3.17 c 0.789,1.07 3.523,5.65 4.953,7.58 7.734,10.47 22.844,25.09 54.648,17.14 l 113.192,-27.11"
         style="fill:#211f1e;fill-opacity:1;fill-rule:nonzero;stroke:none"
         id="path24" />
      <path
         d="m 534.211,2346.92 46.543,45.57 -76.731,32.77 z m 137.762,49.3 c -1.344,-2.42 -3.813,-5.59 -6.676,-8.39 -8.543,-8.36 -26.727,-20.58 -56.465,-6.92 l -16.84,7.7 -53.183,-52.07 20.132,-50.98 -8.554,-8.37 -69.559,177.46 5.699,5.57 141.301,-60.72 c 19.84,-8.48 29.043,-8.76 40.43,0.52 l 3.715,-3.8"
         style="fill:#211f1e;fill-opacity:1;fill-rule:nonzero;stroke:none"
         id="path26" />
      <path
         d="m 792.523,2672.29 c -7.25,-3.33 -14.3,-0.73 -17.64,6.52 -3.336,7.24 -0.719,14.31 6.523,17.64 7.239,3.34 14.301,0.73 17.637,-6.52 3.328,-7.25 0.723,-14.3 -6.52,-17.64 m -41.058,-18.9 c -7.254,-3.33 -14.301,-0.73 -17.637,6.52 -3.332,7.25 -0.726,14.3 6.516,17.64 7.25,3.33 14.308,0.73 17.64,-6.53 3.332,-7.24 0.731,-14.28 -6.519,-17.63 m -31.543,-55.48 c -6.664,14.49 -13.527,23.05 -28.012,16.37 l -4.84,-2.22 -2.226,4.83 21.75,10 c 16.906,7.78 23.953,5.17 35.078,-18.99 l 31.664,-68.82 c 15.566,-33.83 35.883,-49.33 67.769,-34.67 36.954,17 40.129,41.88 20.688,84.15 l -41.695,90.58 9.664,4.43 41.691,-90.56 c 21.672,-47.11 20.715,-76.81 -28.808,-99.59 -47.094,-21.68 -72.704,-4.2 -94.375,42.9 l -28.348,61.59"
         style="fill:#211f1e;fill-opacity:1;fill-rule:nonzero;stroke:none"
         id="path28" />
      <path
         d="m 949.984,2686.39 c -2.511,15.77 -9.437,25.43 -27.812,22.51 l -2.629,-0.42 -0.832,5.25 17.066,2.72 c 17.071,2.71 28.536,-1.65 37.957,-10.12 l 110.076,-99.6 -20.68,129.97 10.5,1.67 27.99,-175.92 -5.26,-0.84 -135.255,122.52 21.926,-137.85 -10.511,-1.67 -22.536,141.78"
         style="fill:#211f1e;fill-opacity:1;fill-rule:nonzero;stroke:none"
         id="path30" />
      <path
         d="m 1188.93,2753.53 c -8.24,0.39 -14.49,8.68 -14.06,17.71 0.35,7.44 5.35,11.73 12.79,11.36 8.24,-0.39 14.51,-8.69 14.06,-17.71 -0.37,-7.44 -5.35,-11.72 -12.79,-11.36 m -12.19,-15.39 23.91,-1.15 -6.93,-143.42 c -0.77,-15.93 1.4,-26.68 17.32,-27.44 l 5.31,-0.27 -0.25,-5.31 -23.91,1.16 c -18.59,0.89 -23.65,6.46 -22.36,33.02 l 6.91,143.41"
         style="fill:#211f1e;fill-opacity:1;fill-rule:nonzero;stroke:none"
         id="path32" />
      <path
         d="m 1342.92,2574.17 c 55,70.35 24.37,31.59 91.26,119.19 l 12.37,-3.21 -118.54,-153.33 -4.63,1.2 -22.85,157.82 c -2.99,21.37 -7.48,29.4 -21.33,34.36 l 1.33,5.15 c 1.29,-0.33 6.58,-1.16 8.89,-1.76 12.62,-3.27 31.83,-11.81 36.35,-44.29 l 17.15,-115.13"
         style="fill:#211f1e;fill-opacity:1;fill-rule:nonzero;stroke:none"
         id="path34" />
      <path
         d="m 1614.61,2607.77 c 16.35,-8.91 14.75,-20.16 9.67,-29.5 l -9.57,-17.5 -4.67,2.55 c 10.2,18.66 4.16,32.56 -14.51,42.76 l -43.4,23.69 -33.12,-60.67 63.01,-34.39 -5.1,-9.35 -63.01,34.41 -35.66,-65.34 40.82,-22.3 c 21.01,-11.45 36.5,-10.83 53.71,4.02 l 4.02,-3.72 -20.27,-17.7 c -6.39,-5.59 -14.53,-7.21 -23.89,-2.11 l -80.49,43.94 68.77,126.01 c 7.64,13.99 10.41,24.6 -3.57,32.25 l -4.69,2.54 2.56,4.68 99.39,-54.27"
         style="fill:#211f1e;fill-opacity:1;fill-rule:nonzero;stroke:none"
         id="path36" />
      <path
         d="m 1750.94,2446.01 c 18.21,21.18 4.96,46.58 -6.15,56.1 -5.02,4.34 -11.93,8.52 -16.86,10.98 l -45.91,-53.45 c 3.18,-4.48 8.36,-10.68 13.41,-15.01 11.1,-9.53 38.21,-18.78 55.51,1.38 m -62.58,-7.57 -14.14,12.13 -52.83,-61.54 -18.16,15.59 93.55,108.93 c 10.39,12.11 15.31,21.92 3.21,32.31 l -4.03,3.46 3.46,4.04 52.46,-45.05 c 17.15,-14.72 46.97,-47.35 19.24,-79.62 -19.92,-23.2 -45,-15.68 -61.72,-6.58 l -9.16,-53.48 c -4.43,-25.99 -1.9,-36.92 7.32,-46.6 l -3.47,-4.04 c -2.87,0.73 -8.79,4.05 -13.83,8.38 -14.12,12.13 -17.13,26.98 -11.19,60.44 l 9.29,51.63"
         style="fill:#211f1e;fill-opacity:1;fill-rule:nonzero;stroke:none"
         id="path38" />
      <path
         d="m 1759.59,2243.14 c -18.3,22.49 -28.55,54.93 -13.1,67.5 l 22.09,17.96 3.01,-3.72 c -23.95,-27.02 -24.05,-50.07 -5.28,-73.17 11.59,-14.24 29.42,-20.98 43.03,-9.92 11.95,9.73 13.38,23.57 10,45.85 l -5.57,37.61 c -3.94,25.92 0.59,40.56 15.86,52.99 21.25,17.28 47.99,12.63 67.6,-11.5 16.6,-20.42 26.95,-52.11 11.51,-64.69 l -22.09,-17.94 -3.03,3.71 c 23.94,27.01 24.16,49.1 5.37,72.2 -9.9,12.17 -27.5,17.39 -40.29,6.98 -11.96,-9.71 -11.78,-22.58 -8.42,-44.85 l 5.58,-37.62 c 3.95,-25.93 2.02,-40.85 -13.22,-53.26 -23.1,-18.79 -51.42,-14.74 -73.05,11.87"
         style="fill:#211f1e;fill-opacity:1;fill-rule:nonzero;stroke:none"
         id="path40" />
      <path
         d="m 2001.04,2241.27 c -4.36,6.99 -1.11,16.86 6.56,21.64 6.31,3.95 12.68,2.29 16.62,-4.03 4.38,-6.99 1.12,-16.86 -6.54,-21.65 -6.31,-3.94 -12.68,-2.27 -16.64,4.04 m -19.57,1.25 12.68,-20.31 -121.78,-76.06 c -13.54,-8.45 -21.15,-16.35 -12.7,-29.87 l 2.83,-4.52 -4.51,-2.82 -12.67,20.3 c -9.89,15.78 -8.19,23.11 14.35,37.2 l 121.8,76.08"
         style="fill:#211f1e;fill-opacity:1;fill-rule:nonzero;stroke:none"
         id="path42" />
      <path
         d="m 2094.18,2027.42 -9.62,-4.52 -25.39,54.18 -149.24,-69.95 -10.16,21.67 149.26,69.95 -10.16,21.67 c -9.02,19.25 -22.52,26.15 -41.78,17.11 l -2.26,4.83 18.07,8.44 c 9.62,4.53 20.95,5.43 28.82,-11.43 l 52.46,-111.95"
         style="fill:#211f1e;fill-opacity:1;fill-rule:nonzero;stroke:none"
         id="path44" />
      <path
         d="m 2145.84,1870.2 c 5.41,-17.81 -3.61,-24.72 -13.78,-27.8 l -19.11,-5.79 -1.54,5.08 c 20.35,6.18 25.78,20.33 19.61,40.69 l -14.35,47.32 -66.14,-20.09 20.84,-68.68 -10.17,-3.09 -20.86,68.68 -71.21,-21.61 13.49,-44.53 c 6.96,-22.9 18.44,-33.3 41.12,-34.75 l 0.27,-5.47 -26.86,1.57 c -8.49,0.48 -15.45,5.04 -18.53,15.22 l -26.64,87.76 137.38,41.7 c 15.25,4.63 24.65,10.27 20.04,25.53 l -1.54,5.09 5.07,1.55 32.91,-108.38"
         style="fill:#211f1e;fill-opacity:1;fill-rule:nonzero;stroke:none"
         id="path46" />
      <path
         d="m 2002.13,1681.99 c -4.63,28.6 2.68,61.83 22.35,65.01 l 28.08,4.53 0.77,-4.72 c -34.24,-11.46 -45.83,-31.37 -41.1,-60.76 2.93,-18.12 15.02,-32.85 32.35,-30.06 15.21,2.46 23.34,13.74 31.54,34.72 l 13.94,35.37 c 9.52,24.43 20.77,34.86 40.2,38 27.01,4.37 47.85,-13.01 52.81,-43.71 4.2,-25.98 -2.64,-58.59 -22.32,-61.77 l -28.09,-4.53 -0.76,4.72 c 34.24,11.45 45.43,30.49 40.68,59.89 -2.5,15.48 -15.15,28.79 -31.42,26.16 -15.22,-2.45 -21.47,-13.7 -29.69,-34.68 l -13.93,-35.39 c -9.53,-24.41 -18.63,-36.39 -38.06,-39.53 -29.38,-4.75 -51.88,12.9 -57.35,46.75"
         style="fill:#211f1e;fill-opacity:1;fill-rule:nonzero;stroke:none"
         id="path48" />
      <path
         d="m 2212.04,1563.84 c -0.51,8.22 7.05,15.34 16.07,15.89 7.42,0.46 12.23,-4.03 12.68,-11.46 0.5,-8.22 -7.04,-15.35 -16.08,-15.9 -7.42,-0.46 -12.22,4.04 -12.67,11.47 m -16.62,10.43 1.46,-23.88 -143.32,-8.81 c -15.92,-0.97 -26.37,-4.28 -25.39,-20.2 l 0.33,-5.31 -5.31,-0.32 -1.47,23.87 c -1.15,18.59 3.85,24.22 30.37,25.85 l 143.33,8.8"
         style="fill:#211f1e;fill-opacity:1;fill-rule:nonzero;stroke:none"
         id="path50" />
      <path
         d="m 1145.64,2491.03 c -447.359,0 -811.324,-475.13 -811.324,-1059.13 0,-583.99 363.965,-1059.119 811.324,-1059.119 447.37,0 811.32,475.129 811.32,1059.119 0,584 -363.95,1059.13 -811.32,1059.13 m 0,-2123.03 c -449.886,0 -815.89,477.27 -815.89,1063.9 0,586.65 366.004,1063.9 815.89,1063.9 449.89,0 815.91,-477.25 815.91,-1063.9 C 1961.55,845.27 1595.53,368 1145.64,368"
         style="fill:#211f1e;fill-opacity:1;fill-rule:nonzero;stroke:none"
         id="path52" />
      <path
         d="m 914.703,135.5 c 44.91,37.27 84.149,56.961 90.337,101.398 5.84,41.832 -18.052,55.161 -34.712,58.84 -16.676,3.641 -33.609,-2.34 -42.715,-12.207 -6.09,-6.711 -7.918,-19.793 -9.742,-32.859 l 4.176,-0.922 c 8.172,27.84 23.898,40.57 40.555,36.898 14.593,-3.199 25.269,-19.019 21.632,-45.148 -5.468,-39.238 -32.523,-56.18 -83.765,-100.191 l -1.817,-13.059 73.969,-16.23 c 14.57,-3.192 19.16,6.562 20.609,17.019 l 2.375,16.992 -4.16,0.91 c -2.554,-18.312 -13.218,-25.39 -29.882,-21.742 z m 170.457,131.328 c 23.2,-2.199 27.93,-29.269 24.56,-84.848 -3.37,-55.589 -11.28,-81.429 -34.49,-79.218 -23.19,2.207 -27.92,29.269 -24.56,84.847 3.37,55.582 11.29,81.422 34.49,79.219 m 0.64,10.582 c -36.9,3.52 -52.85,-32.23 -56.22,-87.801 -3.35,-55.589 8.12,-93.9371 45.02,-97.4606 36.9,-3.5078 52.85,32.2496 56.21,87.8316 3.37,55.571 -8.11,93.93 -45.01,97.43 m 115.03,-12.609 c 23.2,2.211 31.13,-23.641 34.49,-79.223 3.36,-55.578 -1.37,-82.637 -24.55,-84.84 -23.23,-2.2185 -31.16,23.621 -34.5,79.223 -3.37,55.57 1.35,82.648 24.56,84.84 m -0.65,10.59 c -36.89,-3.52 -48.36,-41.891 -45,-97.461 3.36,-55.551 19.3,-91.3011 56.21,-87.7816 36.9,3.5118 48.38,41.8716 45.02,97.4416 -3.36,55.57 -19.32,91.308 -56.23,87.801 m 165.88,-14.653 c -4.39,31.391 -25.63,37.5 -48.56,32.473 -22.89,-5.031 -41.25,-19.832 -36.5,-53.832 3.22,-22.988 18.46,-32.309 34.49,-39.57 -15.37,-12.809 -30.21,-29.528 -26.58,-55.68 4.4,-31.399 28.09,-39.649 54.12,-33.938 26.06,5.739 46.1,23.598 41.35,57.598 -3.69,26.641 -21.13,36.039 -38.34,44.109 12.21,11.032 22.93,27.942 20.02,48.84 m -0.72,-102.527 c 2.89,-20.922 -9.18,-34.34 -23.77,-37.539 -14.57,-3.203 -29.59,4.269 -32.85,27.797 -3.48,24.832 5.66,37.883 16.89,48.172 19.51,-7.551 36.6,-16.211 39.73,-38.43 m -65.26,90.73 c -3.1,22.227 8.48,31.508 18.89,33.821 10.41,2.277 23.83,-1.524 27.3,-26.352 2.72,-19.601 -3.28,-30.371 -10.52,-40.031 -16.92,5.723 -33.3,15.582 -35.67,32.562"
         style="fill:#211f1e;fill-opacity:1;fill-rule:nonzero;stroke:none"
         id="path54" />
      <path
         d="m 809.52,2193.99 c 270.54,-43.4 419.98,-201.62 482.2,-426.28 19.67,-71 32.07,-148.71 38.89,-231.43 -1.72,-5.53 -3.38,-11.12 -4.94,-16.79 -23.36,-84.38 -30.74,-175.38 -31.68,-262.68 -1.04,-100.05 6.41,-200.79 16.58,-300.259 l 0.26,-2.512 c -105.96,16.75 -193.38,69.661 -256.5,143.051 -62.576,72.72 -104.217,166.19 -127.365,261.07 -30.613,112.62 -36.754,256.69 -49.586,404.45 -12.91,148.55 -36.367,300.91 -67.859,431.38"
         style="fill:#a9223a;fill-opacity:1;fill-rule:evenodd;stroke:none"
         id="path56" />
      <path
         d="m 1322.37,938.078 c 66.15,-206.219 -107.89,-305.297 -315.04,-381.769 -27.861,83.929 2.73,171.761 52.11,227.679 58.63,66.442 177.89,111.992 262.93,154.09"
         style="fill:#a9223a;fill-opacity:1;fill-rule:evenodd;stroke:none"
         id="path58" />
      <path
         d="m 1673.93,1800.65 c -184.67,-29.63 -286.68,-137.62 -329.16,-290.97 -42.15,-152.14 -35.57,-349.57 -14.49,-555.641 73.01,11.18 133.16,47.451 176.54,97.871 42.72,49.64 71.13,113.44 86.93,178.21 20.9,76.88 25.1,175.21 33.85,276.09 8.81,101.38 24.83,205.38 46.33,294.44"
         style="fill:#60c0be;fill-opacity:1;fill-rule:evenodd;stroke:none"
         id="path60" />
    </g>
  </g>
</svg>
